<svg height="512pt" viewBox="0 0 512 512" width="512pt" xmlns="http://www.w3.org/2000/svg"><path d="m437.019531 74.980469c-48.351562-48.351563-112.640625-74.980469-181.019531-74.980469s-132.667969 26.628906-181.019531 74.980469c-48.351563 48.351562-74.980469 112.640625-74.980469 181.019531s26.628906 132.667969 74.980469 181.019531c48.351562 48.351563 112.640625 74.980469 181.019531 74.980469s132.667969-26.628906 181.019531-74.980469c48.351563-48.351562 74.980469-112.640625 74.980469-181.019531s-26.628906-132.667969-74.980469-181.019531zm-10.753906 351.285156c-45.480469 45.480469-105.949219 70.527344-170.265625 70.527344s-124.785156-25.046875-170.265625-70.527344-70.527344-105.949219-70.527344-170.265625 25.046875-124.785156 70.527344-170.265625 105.949219-70.527344 170.265625-70.527344 124.785156 25.046875 170.265625 70.527344 70.527344 105.949219 70.527344 170.265625-25.046875 124.785156-70.527344 170.265625zm0 0"/><path d="m450.925781 126.035156c-16.296875-5.953125-33.683593-8.316406-50.859375-6.992187 2.816406-16.890625 2.074219-34.371094-2.433594-51.21875-1.015624-3.792969-4.753906-6.195313-8.621093-5.53125-19.109375 3.253906-36.976563 10.960937-52.292969 22.449219-6.671875-17.832032-17.507812-34.054688-31.839844-47.117188-2.902344-2.644531-7.34375-2.644531-10.246094 0-10.089843 9.199219-18.449218 19.96875-24.84375 31.757812-4.574218-.328124-9.191406-.5-13.785156-.5-51.996094 0-102.0625 21.894532-137.363281 60.066407-2.855469 3.085937-2.664063 7.894531.417969 10.746093 1.464844 1.355469 3.316406 2.023438 5.160156 2.023438 2.046875 0 4.085938-.820312 5.585938-2.441406 32.433593-35.070313 78.429687-55.1875 126.199218-55.1875 2.320313 0 4.652344.0625 6.976563.152344-5.144531 13.566406-7.871094 28.078124-7.871094 42.84375 0 33.960937 14.40625 66.566406 39.527344 89.457031.746093.683593 1.597656 1.183593 2.496093 1.515625.007813.003906.015626.007812.023438.011718 13.398438 4.886719 27.433594 7.304688 41.441406 7.304688 19.371094 0 38.679688-4.628906 56.144532-13.769531 8.121093-4.25 15.664062-9.394531 22.527343-15.273438 7.058594 19.039063 10.644531 39.0625 10.644531 59.667969 0 94.792969-77.117187 171.910156-171.910156 171.910156-94.792968 0-171.910156-77.117187-171.910156-171.910156 0-33.453125 9.613281-65.867188 27.800781-93.742188 2.292969-3.515624 1.304688-8.226562-2.214843-10.523437-3.515626-2.292969-8.226563-1.304687-10.523438 2.214844-19.804688 30.351562-30.269531 65.640625-30.269531 102.054687 0 103.175782 83.9375 187.117188 187.117187 187.117188 103.175782 0 187.117188-83.941406 187.117188-187.117188 0-24.710937-4.722656-48.660156-14.050782-71.261718 12.511719-14.097657 21.722657-31.066407 26.601563-49.628907 1-3.800781-1.058594-7.734375-4.746094-9.078125zm-81.125 30.210938c-11.449219 17.847656-27.976562 31.714844-47.152343 40.003906 14.015624-20.140625 21.753906-44.285156 21.753906-69.167969 0-9.035156-1.027344-17.972656-3-26.664062 12.503906-10.46875 27.234375-17.882813 43.152344-21.699219 5.222656 26.65625-.011719 54.542969-14.753907 77.527344zm-99.484375-29.164063c0-27.300781 10.648438-53.601562 29.441406-73.21875 18.789063 19.617188 29.441407 45.917969 29.441407 73.21875s-10.652344 53.605469-29.441407 73.222657c-18.792968-19.617188-29.441406-45.921876-29.441406-73.222657zm117.371094 71.046875c-17.964844 9.402344-38.160156 13.339844-58.050781 11.65625 21.519531-9.527344 40.0625-25.214844 52.964843-45.328125 5.976563-9.320312 10.578126-19.347656 13.777344-29.761719 14.222656-1.769531 28.726563-.613281 42.535156 3.398438-8.675781 25.742188-27.039062 47.375-51.226562 60.035156zm0 0"/><path d="m194.167969 177.457031c-11.828125 0-22.351563 5.683594-28.992188 14.457031-6.640625-8.773437-17.160156-14.457031-28.988281-14.457031-20.039062 0-36.339844 16.304688-36.339844 36.34375 0 18.410157 13.769532 33.660157 31.546875 36.011719-1.808593 4.316406-2.8125 9.050781-2.8125 14.015625 0 20.039063 16.304688 36.339844 36.339844 36.339844 20.039063 0 36.34375-16.300781 36.34375-36.339844 0-4.941406-.996094-9.652344-2.789063-13.953125 18.011719-2.136719 32.03125-17.496094 32.03125-36.074219 0-20.039062-16.300781-36.34375-36.339843-36.34375zm-79.113281 36.34375c0-11.652343 9.480468-21.132812 21.132812-21.132812s21.132812 9.480469 21.132812 21.132812c0 11.652344-9.480468 21.132813-21.132812 21.132813s-21.132812-9.480469-21.132812-21.132813zm49.867187 71.160157c-11.648437 0-21.132813-9.480469-21.132813-21.132813s9.484376-21.132813 21.132813-21.132813c11.652344 0 21.136719 9.480469 21.136719 21.132813s-9.484375 21.132813-21.136719 21.132813zm29.246094-50.027344c-11.652344 0-21.132813-9.480469-21.132813-21.132813 0-11.652343 9.480469-21.132812 21.132813-21.132812 11.652343 0 21.132812 9.480469 21.132812 21.132812 0 11.652344-9.480469 21.132813-21.132812 21.132813zm0 0"/><path d="m363.066406 295.441406c3.808594-1.769531 5.460938-6.292968 3.691406-10.101562-4.324218-9.308594-10.230468-17.75-17.566406-25.09375-16.613281-16.613282-38.699218-25.761719-62.191406-25.761719-23.488281 0-45.574219 9.148437-62.1875 25.761719-16.613281 16.609375-25.761719 38.699218-25.761719 62.191406s9.152344 45.578125 25.761719 62.183594c16.613281 16.613281 38.699219 25.761718 62.1875 25.761718 23.492188 0 45.578125-9.148437 62.191406-25.761718 17.667969-17.667969 27.003906-42.113282 25.613282-67.066406-.234376-4.195313-3.828126-7.394532-8.015626-7.167969-4.191406.230469-7.402343 3.820312-7.167968 8.011719 1.148437 20.640624-6.570313 40.855468-21.183594 55.46875-13.742188 13.742187-32.007812 21.308593-51.433594 21.308593-19.429687 0-37.695312-7.566406-51.4375-21.308593-13.738281-13.734376-21.304687-32-21.304687-51.429688s7.566406-37.699219 21.304687-51.4375c13.742188-13.742188 32.007813-21.308594 51.4375-21.308594 19.425782 0 37.691406 7.566406 51.429688 21.304688 6.070312 6.078125 10.960937 13.0625 14.535156 20.753906 1.765625 3.804688 6.289062 5.460938 10.097656 3.691406zm0 0"/><path d="m243.886719 301.175781c-6.867188 2.453125-11.578125 8.488281-12.300781 15.746094-1.652344 16.683594 4.195312 33.042969 16.042968 44.894531 10.523438 10.519532 24.609375 16.308594 39.320313 16.308594 1.847656 0 3.703125-.09375 5.566406-.277344 7.257813-.71875 13.292969-5.433594 15.746094-12.300781 2.453125-6.863281.777343-14.324219-4.378907-19.476563l-40.515624-40.519531c-5.152344-5.152343-12.617188-6.828125-19.480469-4.375zm49.242187 55.648438c1.347656 1.34375 1.085938 2.835937.8125 3.605469-.222656.621093-.953125 2.089843-2.925781 2.285156-12.136719 1.203125-24.023437-3.042969-32.632813-11.652344-8.613281-8.613281-12.863281-20.511719-11.660156-32.640625.195313-1.972656 1.664063-2.703125 2.285156-2.925781.3125-.113282.746094-.222656 1.238282-.222656.71875 0 1.566406.234374 2.367187 1.03125zm0 0"/><path d="m323.765625 344.816406c2.113281 0 4.257813-.363281 6.34375-1.109375 6.867187-2.453125 11.582031-8.484375 12.304687-15.742187 1.664063-16.683594-4.179687-33.054688-16.03125-44.90625-11.851562-11.851563-28.21875-17.699219-44.910156-16.035156-7.257812.722656-13.289062 5.4375-15.742187 12.304687-2.449219 6.859375-.773438 14.320313 4.378906 19.472656l40.527344 40.53125c3.585937 3.582031 8.289062 5.484375 13.128906 5.484375zm-43.714844-60.371094c.222657-.625.953125-2.09375 2.929688-2.289062 1.359375-.132812 2.710937-.203125 4.058593-.203125 10.695313 0 20.9375 4.210937 28.589844 11.859375 8.617188 8.617188 12.863282 20.515625 11.652344 32.644531-.195312 1.976563-1.664062 2.707031-2.285156 2.929688-.769532.277343-2.257813.535156-3.605469-.808594l-40.527344-40.53125c-1.347656-1.34375-1.085937-2.835937-.8125-3.601563zm0 0"/></svg>