<svg xmlns="http://www.w3.org/2000/svg" width="310" height="310"><g data-name="Groupe 69"><path data-name="Basilic&amp;CoBG" fill="#3d3c3f" d="M0 0h310v310H0z"/><g data-name="Basilic&amp;CoText"><g data-name="Groupe 66"><path data-name="Tracé 373" d="M84.818 157.015v-26.846h7.29c4.934 0 8.055 3.083 8.055 7.292a6.1 6.1 0 01-2.394 5.221 7.05 7.05 0 013.989 6.531c0 4.788-3.591 7.8-8.489 7.8zm7.147-15.672c2.647 0 4.28-1.271 4.28-3.775 0-2.575-1.633-3.808-4.5-3.808h-3.009v7.583zm.978 12.08c2.795 0 4.9-1.6 4.9-4.209 0-1.815-1.233-4.28-4.788-4.28h-4.316v8.489z" fill="#fff"/><path data-name="Tracé 374" d="M122.621 157.015l-2.974-7.91h-9.651l-2.976 7.91h-4.135l10.195-26.846h3.52l10.194 26.846zm-7.726-21.767h-.074l-3.446 10.266h6.93z" fill="#fff"/><path data-name="Tracé 375" d="M139.643 137.134a3.591 3.591 0 00-3.772-3.882 3.737 3.737 0 00-3.591 3.665c0 1.886 1.269 2.974 3.882 3.808 5.8 1.85 7.943 4.028 7.943 8.67a7.838 7.838 0 01-8.234 8.127c-4.788 0-8.2-3.41-8.272-8.453h3.918c.036 2.9 1.741 4.862 4.354 4.862a4.212 4.212 0 004.316-4.536c0-1.96-.87-3.193-3.737-4.173-6.639-2.249-8.089-4.426-8.089-8.234a7.4 7.4 0 017.509-7.328c4.426 0 7.619 2.792 7.69 7.473z" fill="#fff"/><path data-name="Tracé 376" d="M148.265 157.015v-26.846h3.918v26.846z" fill="#fff"/><path data-name="Tracé 377" d="M157.744 157.015v-26.846h3.918v23.255h9.324v3.591z" fill="#fff"/><path data-name="Tracé 378" d="M173.638 157.015v-26.846h3.918v26.846z" fill="#fff"/><path data-name="Tracé 379" d="M207.612 150.376a13.718 13.718 0 01-12.407 7.147c-7.438 0-13.568-6.677-13.568-13.824a13.893 13.893 0 0126.157-6.675h-4.718a9.564 9.564 0 00-7.545-3.772 10.111 10.111 0 00-9.977 10.085c0 5.623 4.245 10.595 9.76 10.595a9.616 9.616 0 007.473-3.555z" fill="#fff"/><path data-name="Tracé 380" d="M226.091 152.806c-2.139 3.229-4.717 4.717-7.8 4.717a8.039 8.039 0 01-8.2-8.017 8.206 8.206 0 015.151-7.655c-1.994-2-2.575-3.484-2.575-5.334a6.73 6.73 0 1113.459-.036c0 2.866-1.56 5.043-4.5 6.458l3.555 3.482 2.938-5.911h4.245l-4.39 8.852 5.406 5.513-2.611 2.649zm-8.27-8.308a5.089 5.089 0 00-3.811 4.97 4.226 4.226 0 004.28 4.464c2.068 0 3.775-1.126 5.189-3.846zm4.388-8.127a2.946 2.946 0 00-2.792-3.119 2.976 2.976 0 00-2.826 3.265c0 1.271.727 2.394 2.287 3.811 2.574-1.307 3.334-2.359 3.334-3.957z" fill="#99bf0d"/><path data-name="Tracé 381" d="M260.886 150.376a13.721 13.721 0 01-12.407 7.147c-7.438 0-13.568-6.677-13.568-13.824a13.893 13.893 0 0126.157-6.675h-4.717a9.572 9.572 0 00-7.545-3.772 10.109 10.109 0 00-9.977 10.085c0 5.623 4.245 10.595 9.758 10.595a9.612 9.612 0 007.473-3.555z" fill="#fff"/><path data-name="Tracé 382" d="M276.525 157.523a13.932 13.932 0 1114.186-14.112 13.984 13.984 0 01-14.186 14.112zm10.266-13.859c0-5.549-4.207-10.411-9.868-10.411-7.254 0-10.23 6.241-10.23 10.23 0 5.406 3.918 10.449 10.049 10.449a10.118 10.118 0 0010.048-10.269z" fill="#fff"/></g><g data-name="Groupe 67" fill="#99bf0d"><path data-name="Tracé 383" d="M84.818 179.564v-18.3h5.318c3.932 0 6.429 1.953 6.429 5.539s-2.449 5.542-6.405 5.542h-2.671v7.223zm5.318-9.672c2.349 0 3.758-1.114 3.758-3.093 0-2-1.459-3.09-3.784-3.09h-2.621v6.183z"/><path data-name="Tracé 384" d="M100.673 164.279v-3.019h2.573v3.019zm0 15.285v-13.7h2.573v13.7z"/><path data-name="Tracé 385" d="M107.41 179.564v-2.005l6.579-9.348h-5.938v-2.351h8.756v2.5l-6.207 8.854h6.727v2.351z"/><path data-name="Tracé 386" d="M120.532 179.564v-2.005l6.579-9.348h-5.935v-2.351h8.756v2.5l-6.207 8.854h6.727v2.351z"/><path data-name="Tracé 387" d="M145.437 179.564v-2.129h-.05a5.21 5.21 0 01-4.65 2.475 7.21 7.21 0 11-.1-14.42 5.463 5.463 0 014.75 2.3h.05v-1.93h2.571v13.7zm.048-6.827a4.728 4.728 0 00-4.774-4.9 4.861 4.861 0 104.774 4.9z"/><path data-name="Tracé 388" d="M175.073 179.564v-1.955h-.05a5.83 5.83 0 01-4.848 2.3 7.211 7.211 0 01-.074-14.42 5.938 5.938 0 014.724 2.053h.05v-6.282h2.573v18.3zm-4.778-11.729a4.861 4.861 0 104.774 5 4.71 4.71 0 00-4.774-5z"/><path data-name="Tracé 389" d="M184.913 173.824a4.706 4.706 0 004.5 3.734 4.414 4.414 0 003.908-2.3h2.573a7.024 7.024 0 01-6.579 4.65 7.185 7.185 0 01-6.975-7.075 7.073 7.073 0 016.9-7.345 6.979 6.979 0 017.1 7.049 7.8 7.8 0 01-.074 1.285zm8.856-1.979a4.45 4.45 0 00-8.856 0z"/><path data-name="Tracé 390" d="M211.651 179.564v-11.353h-1.855v-2.351h1.855v-4.6h2.573v4.6h2.251v2.351h-2.251v11.353z"/><path data-name="Tracé 391" d="M222.057 173.824a4.706 4.706 0 004.5 3.734 4.414 4.414 0 003.908-2.3h2.577a7.021 7.021 0 01-6.579 4.65 7.185 7.185 0 01-6.975-7.075 7.073 7.073 0 016.9-7.345 6.98 6.98 0 017.1 7.049 7.8 7.8 0 01-.074 1.285zm8.854-1.979a4.449 4.449 0 00-8.854 0z"/><path data-name="Tracé 392" d="M238.361 179.564v-13.7h2.4v1.238h.048a4.13 4.13 0 013.489-1.607v2.647c-2.227.074-3.365 1.433-3.365 3.734v7.693z"/><path data-name="Tracé 393" d="M248.326 179.564v-13.7h2.4v1.238h.05a4.122 4.122 0 013.486-1.607v2.647c-2.225.074-3.362 1.433-3.362 3.734v7.693z"/><path data-name="Tracé 394" d="M264.53 179.91a7.4 7.4 0 01-7.3-7.149 7.4 7.4 0 0114.792.05 7.352 7.352 0 01-7.492 7.099zm.074-12.071a4.86 4.86 0 104.848 4.824 4.819 4.819 0 00-4.848-4.824z"/><path data-name="Tracé 395" d="M276.882 164.279v-3.019h2.573v3.019zm0 15.285v-13.7h2.573v13.7z"/><path data-name="Tracé 396" d="M285.061 179.564v-13.7h2.4v1.238h.05a4.122 4.122 0 013.486-1.607v2.647c-2.225.074-3.362 1.433-3.362 3.734v7.693z"/></g></g><g data-name="Basilic&amp;CoFeuille"><path data-name="Tracé 397" d="M69.662 126.103H16.781v57.765H71.97v-57.765zm0 55.457v-53.149z" fill="#99bf0d"/><g data-name="Groupe 68" fill="#fff"><path data-name="Tracé 398" d="M69.662 153.822c-.563-1.092-1.068-2.22-1.7-3.272a35.3 35.3 0 00-6.107-7.9c-1.467-1.323-3.036-2.532-4.559-3.792a3.039 3.039 0 00-.279-.188c.234.83.541 1.664.694 2.525a12.036 12.036 0 01-.613 5.878 23.749 23.749 0 01-3.4 6.574c-.079.11-.148.222-.274.413 1.912.272 3.46-.522 5.027-1.264a7.17 7.17 0 01-5.585 2.051 46.511 46.511 0 00-4.309 7.552c4.125.975 8 1.166 11.191-2.237a4.173 4.173 0 01-1.2 1.631 8.1 8.1 0 01-3.882 1.672 21.551 21.551 0 01-6.155.126c-.136-.014-.274-.019-.46-.031a35.36 35.36 0 00-2.692 10.633c3.954 1.819 11.406 2.387 16.621-5.039-.057.124-.1.25-.172.37a12.847 12.847 0 01-9.541 6.737 18.471 18.471 0 01-6.517-.079c-.134-.024-.267-.038-.475-.069a30.173 30.173 0 00.246 5.425h-1.579a25.884 25.884 0 01-.644-7.984 15.374 15.374 0 01-8.217-8.954c1.9 3.4 4.423 6.066 8.3 7.168.458-1.75.825-3.451 1.359-5.1s1.238-3.25 1.889-4.929a9.245 9.245 0 01-3.012-5.117 9.456 9.456 0 01-.088-1.967 8.033 8.033 0 003.646 6l4.574-7.8a12.881 12.881 0 01-.687-1.14 6.088 6.088 0 01-.434-1.247 4.766 4.766 0 01-.091-1.333 4.677 4.677 0 001.7 3.033c.37-.656.732-1.254 1.054-1.877a18.846 18.846 0 002.11-6.174 8.809 8.809 0 00-.963-5.778c-.055-.1-.122-.181-.222-.329-.043.15-.074.246-.1.341a7.49 7.49 0 01-1.955 3.517c-1.674 1.746-2.764 3.42-4.481 5.125-2.974 2.95-5.978 5.873-8.909 8.866a69.533 69.533 0 00-4.13 4.652 15.1 15.1 0 00-3.467 7.869 14.292 14.292 0 001.028 7.068 23.166 23.166 0 003.358 5.654c.091.114.176.236.31.417a4.054 4.054 0 01-.415.052c-1.04 0-2.738.019-3.772-.012a.917.917 0 01-.62-.305 16.011 16.011 0 01-3.572-8.484 14.623 14.623 0 011.414-7.543 23.448 23.448 0 014.361-6.329c2.313-2.437 4.645-4.862 7.047-7.211 2.451-2.4 5.017-4.681 7.49-7.056a37.592 37.592 0 002.871-3.1 7.162 7.162 0 001.3-7.28c-.191-.565-.391-1.123-.589-1.686h.167a58.857 58.857 0 017.421 4.993 48.819 48.819 0 017.049 6.7 32.648 32.648 0 013.627 5.244z"/><path data-name="Tracé 399" d="M69.662 181.559H67.85a1.936 1.936 0 01.124-.265q.744-1.095 1.5-2.184a2.26 2.26 0 01.193-.207z"/></g><path data-name="Tracé 400" d="M69.662 128.412v53.148H19.089v-53.148h50.573m1.648-1.648H17.439v56.446H71.31v-56.446z" fill="#fff"/></g></g></svg>