<svg version="1.1" id="Calque_1" xmlns="http://www.w3.org/2000/svg" x="0" y="0" viewBox="0 0 352 122" xml:space="preserve"><style>.st0{fill:#07672f}.st1{fill:#39ab61}.st3,.st4{fill:#fff}.st4{stroke:#39ab61;stroke-miterlimit:10}</style><path class="st0" d="M330.9 122.4l-4.1-4.2c12.7-12.4 19.6-29 19.6-46.8 0-17.5-6.8-33.9-19.2-46.3C314.9 12.7 298.5 5.9 281 5.9s-33.9 6.8-46.3 19.2c-12.4 12.4-19.2 28.8-19.2 46.3 0 17.4 6.8 33.8 19 46.1l-4.2 4.1c-13.4-13.5-20.7-31.3-20.7-50.3 0-19.1 7.4-37 20.9-50.5C244 7.4 261.9 0 281 0s37 7.4 50.4 20.9c13.5 13.5 20.9 31.4 20.9 50.5 0 9.8-1.9 19.2-5.8 28.1-3.6 8.6-8.9 16.3-15.6 22.9z"/><path class="st1" d="M314.2 120c15.3-10.5 25.3-28.2 25.3-48.2 0-32.3-26.2-58.5-58.5-58.5s-58.5 26.2-58.5 58.5c0 19.9 9.9 37.4 25.1 48"/><path class="st0" d="M281 5.9H158.6c-1.6 0-2.9-1.3-2.9-2.9s1.3-3 2.9-3H281c1.6 0 2.9 1.3 2.9 2.9s-1.3 3-2.9 3zm-39.9 12.4h-99.8c-1.6 0-2.9-1.3-2.9-2.9s1.3-2.9 2.9-2.9h99.8c1.6 0 2.9 1.3 2.9 2.9s-1.3 2.9-2.9 2.9zm-21.3 90.3H21.3c-1.6 0-2.9-1.3-2.9-2.9s1.3-2.9 2.9-2.9h198.5c1.6 0 2.9 1.3 2.9 2.9s-1.3 2.9-2.9 2.9z"/><path class="st3" d="M264 85.7c-1.5 0-1.2 2.7-.1 2.5l2.8.3s2 2.4 1.6 4.2-1.5 6-.8 8.8l-1.7 2 8 6.8 4.3-5s4.6-7 4.5-7.6c0 0 13.9-9.1 14.7-8.7 0 0 3.9-.1 5.1 0s3-3.2 0-3.2h-8s-9.2 4.1-12.4 4.5c-3.2.4-8.4 1.3-8.2 1.7.2.3-1.7-5.1-4.5-6.2H264v-.1z"/><circle class="st3" cx="281" cy="48.8" r="3.2"/><path class="st4" d="M248.8 83.1c0-17.7 14.4-32.1 32.1-32.1 17.7 0 32.1 14.4 32.1 32.1"/><path class="st4" d="M318.2 85.7h-74.8c-1.4 0-2.6-1.2-2.6-2.6s1.2-2.6 2.6-2.6h74.8c1.4 0 2.6 1.2 2.6 2.6s-1.2 2.6-2.6 2.6z"/><path class="st1" d="M301.5 68.3c-3.4-4.2-7.8-7.7-12.8-9.8-.6-.3-.9-1-.6-1.6.3-.6.9-.9 1.5-.6 5.4 2.2 10.1 5.9 13.7 10.5.4.5.3 1.2-.1 1.6-.4.5-1.2.5-1.7-.1z"/><path class="st1" d="M302.4 68.9c-.4 0-.7-.2-1-.5-3.4-4.3-7.8-7.7-12.7-9.8-.3-.1-.6-.4-.7-.7s-.1-.7 0-1.1c.3-.6 1-.9 1.7-.7 5.4 2.2 10.1 5.9 13.8 10.5.4.5.4 1.3-.1 1.8-.3.3-.6.5-1 .5zm-13.2-12.6c-.4 0-.8.2-1 .6-.1.3-.1.6 0 .9.1.3.3.5.6.6 4.9 2.2 9.4 5.6 12.8 9.9.2.2.5.4.8.4s.6-.1.8-.4c.4-.4.4-1 .1-1.5-3.6-4.7-8.3-8.3-13.7-10.5h-.4z"/><path class="st0" d="M88.4 71.1c0-3.3 2.3-7.2 7.3-9.6-1.3-1.4-2.3-3.7-2.3-6.5 0-5.9 5.4-12.2 11.8-12.2 4.3 0 6.2 2 6.2 5.5 0 4.6-2.8 6.8-5.4 6.8-1 0-1.5-.4-1.7-.8.6-1.3.9-2.5.9-3.7 0-1.8-.6-2.4-1.3-2.4-1.7 0-3.6 3.3-3.6 6.9 0 1.6.4 3.4.8 4.7 1-.2 2.6-.4 3.4-.4 1.8 0 2.2.5 2.2 1.2 0 2.7-2.2 5.3-4.5 5.3-.9 0-2.1-.5-3.1-1.3-1.3 1.3-2.1 3.3-2.1 4.6 0 2.3 1.3 3.8 4 3.8 4.4 0 10.2-4.2 12.9-8.3 1 0 1.8.4 1.8 1.5 0 3-8.1 13-17.9 13-5.8 0-9.4-3.3-9.4-8.1z"/><path class="st0" d="M116.5 76.6c-2.7 0-4.6-2.2-4.6-6.4 0-7 5.8-14.3 10.4-14.3.7 0 1 .1 1.2.3l.1-2.7c.4-.4 1-.6 1.6-.6 3.2 0 4.9 2.1 4.9 3.8 0 .6-.1 1.8-.5 3.1-1.6 5.9-2.2 8.8-2.2 10 0 .9.2 1.1.6 1.1.9 0 3.3-1.8 6.3-6 1 0 1.7.6 1.7 1.4 0 3-7.7 10.5-11.1 10.5-2 0-3.3-.8-3.3-3.8 0-.5 0-1.1.1-1.8-1.4 4.3-3.6 5.4-5.2 5.4zm6.8-17.3c-2.3 1.5-4.6 5.4-4.6 8.9 0 1.7.6 1.9 1.2 1.9.7 0 1.3-.5 1.9-1.2l1.5-9.6z"/><path class="st0" d="M135.2 61.2c-.9-.1-1.7-.2-1.7-1.2 0-1.4 1-2.7 2.9-2.8 0-1 .1-1.7.3-3.4.4-4.1 2.9-7 6.1-7 2.1 0 3.1.7 3.1 2.7 0 1.4-.6 2.6-3 7.5 1.4 0 3.4-.2 4-.3.6.4.9 1.3.9 2 0 1.8-1.2 3.1-2.7 3.1-1.1 0-2 0-3.4-.3-1.3 5.1-1.6 7.7-1.6 8.4 0 1.1.3 1.6 1.3 1.6 1.9 0 5.1-2.2 8.3-6.7.9 0 1.9.7 1.9 1.6 0 2.7-7.1 11.1-12.5 11.1-3.6 0-6-1.9-6-6.1-.1-1.5.3-4.3 2.1-10.2z"/><path class="st1" d="M165.6 72.5c0-3 4.5-6 7.9-6 2.2 0 2.9.9 2.9 2.6 0 3.6-2.5 8.3-5.8 8.3-2.7 0-5-2.5-5-4.9zm9.3-9.5c-2.6 0-4-2.8-4-5.6 0-2.7.7-8.9 2.2-14.4-.5-1.2-.7-2.6-.7-3.8 0-3.2 4.4-6.9 8.9-6.9 2.6 0 3.4 1 3.4 2.9 0 1.6-1 4.8-3.2 8.8-2 5.7-3.5 11.4-5 18.8-.3 0-1 .2-1.6.2z"/><path class="st0" d="M185.2 61.2c-.9-.1-1.7-.2-1.7-1.2 0-1.4 1-2.7 2.9-2.8 0-1 .1-1.7.3-3.4.4-4.1 2.9-7 6.1-7 2.1 0 3.1.7 3.1 2.7 0 1.4-.6 2.6-3 7.5 1.4 0 3.4-.2 4-.3.6.4.9 1.3.9 2 0 1.8-1.2 3.1-2.7 3.1-1.1 0-2 0-3.4-.3-1.3 5.1-1.6 7.7-1.6 8.4 0 1.1.3 1.6 1.3 1.6 1.9 0 5.1-2.2 8.3-6.7.9 0 1.9.7 1.9 1.6 0 2.7-7.1 11.1-12.5 11.1-3.6 0-6-1.9-6-6.1-.1-1.5.3-4.3 2.1-10.2zm144.5 61.3H3.1c-1.6 0-2.9-1.3-2.9-2.9s1.3-2.9 2.9-2.9h326.6c1.6 0 2.9 1.3 2.9 2.9s-1.3 2.9-2.9 2.9z"/><path class="st3" d="M289.3 35.1s0-.1 0 0c0-.1 0-.1 0 0 0-.1 0-.1 0 0zm4 3.9c0 2.1-.8 4.1-2.2 5.6-.2.3-.6.4-.9.4s-.6-.1-.8-.3c-.5-.5-.5-1.2-.1-1.7 1-1.1 1.5-2.5 1.5-3.9 0-1.5-.5-2.8-1.5-3.9l-.1-.1c-1.2-1.5-1.8-3.3-1.8-5.2 0-1.9.7-3.7 1.9-5.2.4-.5 1.2-.6 1.7-.2s.6 1.2.2 1.7c-.8 1-1.3 2.3-1.3 3.6 0 1.3.5 2.6 1.3 3.6 1.4 1.6 2.1 3.5 2.1 5.6zm-13.9-8.4zm4 3.9c0 2.1-.8 4.1-2.2 5.6-.2.3-.6.4-.9.4s-.6-.1-.8-.3c-.5-.5-.5-1.2-.1-1.7 1-1.1 1.5-2.5 1.5-3.9 0-1.5-.5-2.8-1.5-3.9l-.1-.1c-1.2-1.5-1.8-3.3-1.8-5.2 0-1.9.7-3.7 1.9-5.2.4-.5 1.2-.6 1.7-.2s.6 1.2.2 1.7c-.8 1-1.3 2.3-1.3 3.6 0 1.3.5 2.6 1.3 3.6 1.3 1.6 2.1 3.6 2.1 5.6zm-13.4.6s0-.1 0 0c0-.1 0-.1 0 0 0-.1 0-.1 0 0zm4 3.9c0 2.1-.8 4.1-2.2 5.6-.2.3-.6.4-.9.4s-.6-.1-.8-.3c-.5-.5-.5-1.2-.1-1.7 1-1.1 1.5-2.5 1.5-3.9 0-1.5-.5-2.8-1.5-3.9l-.1-.1c-1.2-1.5-1.8-3.3-1.8-5.2 0-1.9.7-3.7 1.9-5.2.4-.5 1.2-.6 1.7-.2s.6 1.2.2 1.7c-.8 1-1.3 2.3-1.3 3.6 0 1.3.5 2.6 1.3 3.6 1.4 1.6 2.1 3.5 2.1 5.6z"/></svg>