<svg xmlns="http://www.w3.org/2000/svg" width="280.94" height="283.788"><path data-name="Tracé 339" d="M8.824 139.242A131.622 131.622 0 01112.637 11.715 133.5 133.5 0 01140.78 8.7a131.8 131.8 0 01128.508 103.789 130.047 130.047 0 01-6.043 75.6v.55l8.056 3.294v-.548A140.391 140.391 0 00140.78 0a142.385 142.385 0 00-30.021 3.2 140.314 140.314 0 0028.558 277.471h1.1v-8.7h-1.1A131.62 131.62 0 018.824 139.242z" fill="#e63c2f"/><g data-name="Groupe 65"><path data-name="Tracé 340" d="M179.59 271.793a2.764 2.764 0 00-2.2-.5l-2.561.6 1.325 5.805 2.561-.595a2.8 2.8 0 001.786-1.281 2.892 2.892 0 00.365-2.2 2.848 2.848 0 00-1.276-1.829z" fill="none"/><path data-name="Tracé 341" d="M249.195 218.294a2.975 2.975 0 00-3.524 4.577l6.134 4.394a2.973 2.973 0 004.163-.595 2.887 2.887 0 00.55-2.2 2.841 2.841 0 00-1.145-1.922z" fill="none"/><path data-name="Tracé 342" d="M178.398 267.904a2.434 2.434 0 00.276-1.831 2.38 2.38 0 00-1.1-1.557v.047a2.243 2.243 0 00-1.828-.412l-2.564.595 1.145 4.851 2.561-.595a2.288 2.288 0 001.51-1.098z" fill="none"/><path data-name="Tracé 343" d="M268.555 200.722l-7.644-3.66a2.38 2.38 0 00-3.156 1.145l-1.145 2.381 11.945 5.674 1.145-2.332a2.43 2.43 0 00-1.145-3.208z" fill="none"/><path data-name="Tracé 344" d="M255.648 207.678a2.976 2.976 0 00-4.027 1.1l-.014.023a2.931 2.931 0 001.068 4l6.726 3.889a2.975 2.975 0 002.976-5.125z" fill="none"/><path data-name="Tracé 345" d="M159.589 280.9l-5.446.412-1.051-14.552a1.148 1.148 0 00-.412-.777 1.169 1.169 0 00-1.922.96l1.143 15.744a1.145 1.145 0 001.187 1.1h.049l-.044-.047 6.679-.5a1.091 1.091 0 00.78-.412 1.159 1.159 0 00-.138-1.646 1.1 1.1 0 00-.825-.282z" fill="#3fd5ae"/><path data-name="Tracé 346" d="M169.841 279.391l-4.9.78-.915-6 4.165-.642a1.15 1.15 0 00.78-.457 1.191 1.191 0 00-.229-1.6 1.145 1.145 0 00-.871 0l-4.163.639-.817-5.1 4.98-.754a1.15 1.15 0 00.78-.457 1.1 1.1 0 000-.871 1.189 1.189 0 00-1.327-.96l-6.04.915a1.144 1.144 0 00-.967 1.3v.03l2.334 15.377a1.1 1.1 0 001.51.777l6.04-.915a1.191 1.191 0 00.962-1.327 1.112 1.112 0 00-.459-.733 1.139 1.139 0 00-.863-.002z" fill="#3fd5ae"/><path data-name="Tracé 347" d="M180.458 269.597a5.082 5.082 0 00-5.216-7.688l-3.708.871a.969.969 0 00-.73 1.419l3.568 15.33a1.145 1.145 0 001.32.936.73.73 0 00.1-.021l3.7-.871a4.9 4.9 0 003.205-2.381 5.174 5.174 0 00.639-3.982 5.118 5.118 0 00-2.878-3.613zm-6.132 0l-1.145-4.851 2.564-.595a2.244 2.244 0 011.828.412v-.047a2.38 2.38 0 011.1 1.557 2.434 2.434 0 01-.276 1.831 2.288 2.288 0 01-1.51 1.1zm6.178 6.225a2.8 2.8 0 01-1.786 1.281l-2.561.595-1.327-5.811 2.561-.6a2.764 2.764 0 012.2.5 2.848 2.848 0 011.281 1.831 2.892 2.892 0 01-.367 2.204z" fill="#3fd5ae"/><path data-name="Tracé 348" d="M201.328 252.984a1.114 1.114 0 00-.915 0 1.144 1.144 0 00-.569 1.515l.019.042 4.573 10.07-9.931-8.33a1.144 1.144 0 00-1.6 1.51l6.544 14.6a1.1 1.1 0 00.641.595 1.144 1.144 0 001.489-.632l.021-.056a1.139 1.139 0 000-.869l-4.577-10.067 10.023 8.192a1.221 1.221 0 00.686 0 1.154 1.154 0 00.78-.412 1.106 1.106 0 000-1.007l-6.546-14.553a1.053 1.053 0 00-.638-.598z" fill="#3fd5ae"/><path data-name="Tracé 349" d="M218.671 261.726a1.1 1.1 0 00-.869 0l-4.348 2.472-3.02-5.263 3.659-2.107a1.136 1.136 0 00.55-.73 1.1 1.1 0 000-.871 1.145 1.145 0 00-.686-.548 1.19 1.19 0 00-.871 0l-3.659 2.1-2.381-4.209 4.348-2.472a1.158 1.158 0 10-1.145-2.013l-5.766 3.02a.954.954 0 00-.227 1.6l7.688 13.729a1.142 1.142 0 001.54.492l.061-.033 5.354-3.02a1.19 1.19 0 00.457-1.6 1.092 1.092 0 00-.685-.547z" fill="#3fd5ae"/><path data-name="Tracé 350" d="M224.988 249.14a5.039 5.039 0 00-4.577.733 2.332 2.332 0 01-1.784.412 2.24 2.24 0 01-1.557-.96v-.321a2.383 2.383 0 01-.412-1.831 2.287 2.287 0 011.007-1.557 2.254 2.254 0 011.419-.412 2.4 2.4 0 011.372.459 1.054 1.054 0 001.327 0 1.188 1.188 0 00.26-1.662 1.141 1.141 0 00-.26-.26 4.742 4.742 0 00-6.726 6.544v.274a4.58 4.58 0 003.111 1.969 4.855 4.855 0 003.615-.777 2.793 2.793 0 012.519-.321 2.92 2.92 0 011.92 1.875 2.867 2.867 0 010 1.878 2.98 2.98 0 01-1.234 1.6 2.839 2.839 0 01-1.786.5 2.893 2.893 0 01-1.737-.686 1.051 1.051 0 00-1.419 0 1.1 1.1 0 00-.506.915 1.144 1.144 0 00.459.96 5.27 5.27 0 003.111 1.145 5.314 5.314 0 005.354-3.8 5.061 5.061 0 000-3.568 5.218 5.218 0 00-3.476-3.109z" fill="#3fd5ae"/><path data-name="Tracé 351" d="M238.258 246.99a1.091 1.091 0 00-.822.274l-3.8 3.2-3.936-4.575 3.25-2.746a1.189 1.189 0 000-1.648 1.144 1.144 0 00-.777-.412 1.2 1.2 0 00-.871.274l-3.25 2.746-3.111-3.706 3.8-3.2a1.262 1.262 0 00.274-1.831 1.189 1.189 0 00-1.648 0l-4.577 3.936a1.148 1.148 0 00-.412.777 1.2 1.2 0 00.276.871l10.023 11.9a1.156 1.156 0 001.646.136l4.577-3.936a1.142 1.142 0 00-.641-2.058z" fill="#3fd5ae"/><path data-name="Tracé 352" d="M242.652 233.398l2.838-3.158a1.145 1.145 0 00.03-1.618l-.03-.028a1.137 1.137 0 00-.824-.321 1.187 1.187 0 00-.824.412l-2.838 3.156-3.568-3.2 3.341-3.706a1.1 1.1 0 00.318-.686 1.144 1.144 0 00-2.013-.733l-4.118 4.577a1.145 1.145 0 00-.03 1.618l.03.028 11.58 10.39a1.18 1.18 0 00.869.318 1.194 1.194 0 00.824-.41 1.114 1.114 0 00-.091-1.648z" fill="#3fd5ae"/><path data-name="Tracé 353" d="M250.57 216.098a5.077 5.077 0 00-3.936-1.007 5.263 5.263 0 00-2.381 9.472l6.225 4.577a5.281 5.281 0 106.314-8.466zm5.4 10.573a2.973 2.973 0 01-4.163.595l-6.134-4.394a2.975 2.975 0 013.524-4.577l6.178 4.256a2.841 2.841 0 011.145 1.922 2.887 2.887 0 01-.551 2.198z" fill="#3fd5ae"/><path data-name="Tracé 354" d="M256.935 205.664a5.291 5.291 0 10-5.31 9.154l6.729 3.889a5.308 5.308 0 005.307-9.152zm6.164 10.048a2.976 2.976 0 01-3.694.981l-6.73-3.884a2.931 2.931 0 01-1.068-4l.014-.023a2.976 2.976 0 014.027-1.1l6.729 3.891a2.973 2.973 0 01.719 4.132z" fill="#3fd5ae"/><path data-name="Tracé 355" d="M269.471 198.571l-7.644-3.662a4.576 4.576 0 00-6.155 2c-.04.08-.077.162-.115.243l-1.646 3.432a1.193 1.193 0 000 .915 1.139 1.139 0 00.595.639l14.049 6.733a1.253 1.253 0 001.693-.55l1.648-3.432a5.06 5.06 0 00-2.425-6.314zm.229 5.354l-1.145 2.332-11.945-5.673 1.145-2.381a2.38 2.38 0 013.156-1.145l7.644 3.662a2.43 2.43 0 011.15 3.206z" fill="#3fd5ae"/><path data-name="Tracé 356" d="M191.761 261.635a4.648 4.648 0 00-.382-.714 4.538 4.538 0 00-.3-.567l-.026-.028a4.418 4.418 0 00-6.183-1.85h-.152a4.432 4.432 0 00-.468.419 4.461 4.461 0 00-1.433 5.6c.012.052.009.1.026.155l3.936 11.807a1.14 1.14 0 00.595.688 1.208 1.208 0 00.869 0 1.145 1.145 0 00.74-1.44l-.007-.026-2.334-7.094 4.577-1.51 2.334 7.094a1.13 1.13 0 00.595.686 1.106 1.106 0 001.555-1.419zm-4.614-1.121a2.336 2.336 0 012.224 1.674 2.175 2.175 0 01.288.52l.824 2.517-4.575 1.51-.824-2.517a2.242 2.242 0 010-.251 2.307 2.307 0 01-.3-1.091 2.364 2.364 0 012.363-2.362z" fill="#3fd5ae"/></g><path data-name="Tracé 357" d="M129.569 114.274h-.274a9.611 9.611 0 00-9.611 9.611v8.054a9.609 9.609 0 009.611 9.611h.274a9.7 9.7 0 009.611-9.611v-8.054a9.7 9.7 0 00-9.611-9.611z" fill="none"/><path data-name="Tracé 358" d="M181.604 124.158a9.566 9.566 0 00-9.519-9.519h-.276a9.473 9.473 0 00-9.517 9.428v8.006a9.473 9.473 0 009.426 9.519h.368a9.567 9.567 0 009.519-9.472z" fill="none"/><path data-name="Tracé 359" d="M95.75 117.568a9.161 9.161 0 00-6.682-2.791h-.276a9.471 9.471 0 00-9.517 9.428v.091h19.266a9.483 9.483 0 00-2.791-6.728z" fill="none"/><path data-name="Tracé 360" d="M131.26 182.234h-.274a9.473 9.473 0 00-9.475 9.472v7.965a9.471 9.471 0 009.428 9.517h.318a9.563 9.563 0 009.519-9.519v-7.963a9.564 9.564 0 00-9.516-9.472z" fill="none"/><path data-name="Tracé 361" d="M129.659 106.312h-.274a17.525 17.525 0 00-17.482 17.481l-.091 8.145a17.529 17.529 0 0017.482 17.484h.274a17.078 17.078 0 009.793-2.976 3.527 3.527 0 003.8 2.976 3.756 3.756 0 002.791-1.145 3.841 3.841 0 001.189-2.838V87.732l14.188 5.127a4.165 4.165 0 002.838-7.827l-19.586-7.23a4.174 4.174 0 00-2.793 0l-19.909 7.046a4.176 4.176 0 102.793 7.871l14.6-5.172v21.647a17.192 17.192 0 00-9.613-2.882zm9.519 25.627a9.7 9.7 0 01-9.611 9.611h-.274a9.609 9.609 0 01-9.611-9.611v-8.054a9.611 9.611 0 019.611-9.611h.274a9.7 9.7 0 019.611 9.611z" fill="#3fd5ae"/><path data-name="Tracé 362" d="M125.942 73.259a4.167 4.167 0 003.947 2.8l-.047-.047a4.158 4.158 0 001.374-.227l11.945-4.212 11.668 4.212a4.165 4.165 0 002.838-7.827l-13.043-4.574a4.167 4.167 0 00-2.791 0l-13.317 4.577a4.165 4.165 0 00-2.574 5.298z" fill="#3fd5ae"/><path data-name="Tracé 363" d="M137.254 58.807l5.9-2.058 5.72 2.058a4.164 4.164 0 002.838-7.824l-7.138-2.564a4.174 4.174 0 00-2.793 0l-7.276 2.564a4.162 4.162 0 00-2.564 5.3v.007a4.161 4.161 0 005.313 2.517z" fill="#3fd5ae"/><path data-name="Tracé 364" d="M43.258 122.648a7.917 7.917 0 017.966-7.871h.229a7.785 7.785 0 014.575 1.51 7.591 7.591 0 012.884 3.891 3.524 3.524 0 003.662 2.517 3.794 3.794 0 003.15-1.557 3.613 3.613 0 00.55-3.432 15.651 15.651 0 00-14.824-10.662h-.226a15.74 15.74 0 00-15.742 15.7v10.889a15.741 15.741 0 0015.789 15.7h.227a15.79 15.79 0 0014.826-10.667 3.57 3.57 0 00-.55-3.432 3.752 3.752 0 00-3.158-1.6 3.524 3.524 0 00-3.662 2.561 8.006 8.006 0 01-7.5 5.4h-.33a7.917 7.917 0 01-7.871-7.962v-10.985z" fill="#181614"/><path data-name="Tracé 365" d="M105.222 128.185a7.453 7.453 0 001.1-3.889l.365-1.51-.274-1.466a15.5 15.5 0 00-1.007-3.523 17.2 17.2 0 00-3.706-5.584 16.573 16.573 0 00-12.265-5.125h-.274a17.3 17.3 0 00-17.256 17.208v7.871a17.3 17.3 0 0017.255 17.117h.274a16.383 16.383 0 0013.728-7.047 3.752 3.752 0 00.595-3.479 3.658 3.658 0 00-2.425-2.472 3.478 3.478 0 00-4.575 1.327 9.153 9.153 0 01-7.689 3.933H88.7a9.473 9.473 0 01-9.426-9.519h19.267a7.274 7.274 0 006.681-3.842zm-25.947-3.939v-.044a9.471 9.471 0 019.517-9.425h.276a9.161 9.161 0 016.682 2.791 9.483 9.483 0 012.791 6.729H79.275z" fill="#181614"/><path data-name="Tracé 366" d="M185.487 149.326a3.694 3.694 0 002.746-1.1 3.8 3.8 0 001.145-2.791V110.75a3.892 3.892 0 00-3.891-3.844 3.477 3.477 0 00-3.889 2.929 16.931 16.931 0 00-9.611-2.929h-.276a17.3 17.3 0 00-17.247 17.252v7.968a17.3 17.3 0 0017.252 17.249h.276a16.855 16.855 0 009.611-2.929 3.476 3.476 0 003.884 2.88zm-13.4-7.731h-.368a9.473 9.473 0 01-9.432-9.519v-8.009a9.473 9.473 0 019.517-9.428h.283a9.566 9.566 0 019.519 9.519v7.968a9.567 9.567 0 01-9.519 9.469z" fill="#181614"/><path data-name="Tracé 367" d="M204.805 148.23a3.885 3.885 0 001.145-2.791v-21.143a9.562 9.562 0 019.472-9.472 3.763 3.763 0 002.746-1.145 3.889 3.889 0 00-2.746-6.635 16.6 16.6 0 00-9.564 2.924 3.982 3.982 0 00-1.374-2.152 3.619 3.619 0 00-2.425-.871 3.812 3.812 0 00-2.791 1.145 3.712 3.712 0 00-1.1 2.746v34.785a3.92 3.92 0 006.635 2.606z" fill="#181614"/><path data-name="Tracé 368" d="M235.697 141.779a5.631 5.631 0 01-5.4-3.067 4.21 4.21 0 00-3.981-2.374 4.163 4.163 0 00-3.617 1.784 3.388 3.388 0 00-.274 3.753 13.743 13.743 0 005.263 5.219 15.487 15.487 0 007.962 2.1 15.693 15.693 0 009.154-2.746 12.36 12.36 0 005.446-6.956 11.852 11.852 0 00-2.929-11.35 14.558 14.558 0 00-11.441-5.172 4.573 4.573 0 01-3.891-1.189 3.713 3.713 0 01-1.007-3.57 4 4 0 011.7-2.425 5.261 5.261 0 013.02-.915 4.584 4.584 0 014.074 2.1 4.3 4.3 0 003.8 2.107 4.12 4.12 0 003.706-1.924 3.333 3.333 0 000-3.842 12.724 12.724 0 00-11.624-6.225 14.409 14.409 0 00-8.1 2.381 11.518 11.518 0 00-4.575 6.27 10.752 10.752 0 002.184 10.619 13.177 13.177 0 0010.343 4.575 6.959 6.959 0 014.118 1.327 5.085 5.085 0 012.1 3.388 4.988 4.988 0 01-1.463 4.3 6.134 6.134 0 01-4.568 1.832z" fill="#181614"/><path data-name="Tracé 369" d="M93.827 216.879a3.794 3.794 0 002.744-1.1 3.886 3.886 0 001.1-2.791v-21.143a9.563 9.563 0 019.517-9.519 3.752 3.752 0 002.746-1.1 3.889 3.889 0 00-2.746-6.635l.047.091a16.6 16.6 0 00-9.564 2.929 3.942 3.942 0 00-1.374-2.152 3.609 3.609 0 00-2.425-.869 3.8 3.8 0 00-2.791 1.143 3.705 3.705 0 00-1.145 2.746v34.6a3.848 3.848 0 003.891 3.8z" fill="#181614"/><path data-name="Tracé 370" d="M131.261 174.454h-.274a17.3 17.3 0 00-17.252 17.252v7.965a17.3 17.3 0 0017.252 17.252h.321a17.254 17.254 0 0017.208-17.3v-7.917a17.3 17.3 0 00-17.255-17.252zm9.519 25.217a9.563 9.563 0 01-9.519 9.519h-.318a9.471 9.471 0 01-9.428-9.517v-7.967a9.473 9.473 0 019.472-9.472h.274a9.564 9.564 0 019.519 9.472z" fill="#181614"/><path data-name="Tracé 371" d="M159.095 158.401a3.89 3.89 0 00-3.9 3.879v37.344a17.3 17.3 0 0017.252 17.255 3.7 3.7 0 002.746-1.1 3.8 3.8 0 001.145-2.791 3.892 3.892 0 00-3.891-3.844h-.185a9.474 9.474 0 01-9.47-9.475V162.28a3.848 3.848 0 00-1.145-2.746h.183a3.888 3.888 0 00-2.735-1.133z" fill="#181614"/><path data-name="Tracé 372" d="M196.383 216.924a3.708 3.708 0 002.746-1.1 3.8 3.8 0 001.145-2.793 3.888 3.888 0 00-3.891-3.842h-.091a9.474 9.474 0 01-9.426-9.519v-37.39a3.848 3.848 0 00-1.148-2.746 3.807 3.807 0 00-2.7-1.1h-.047a3.845 3.845 0 00-3.844 3.844v37.391a17.253 17.253 0 0017.256 17.255z" fill="#181614"/></svg>